<svg width="33" height="33" viewBox="0 0 33 33" fill="none" xmlns="http://www.w3.org/2000/svg">
<path fill-rule="evenodd" clip-rule="evenodd" d="M4.64475 4.64465C5.31363 3.97577 6.22083 3.6 7.16676 3.6C8.1127 3.6 9.0199 3.97577 9.68878 4.64465C10.3577 5.31353 10.7334 6.22073 10.7334 7.16667C10.7334 8.1126 10.3577 9.0198 9.68878 9.68868C9.0199 10.3576 8.1127 10.7333 7.16676 10.7333C6.22083 10.7333 5.31363 10.3576 4.64475 9.68868C3.97587 9.0198 3.6001 8.1126 3.6001 7.16667C3.6001 6.22073 3.97587 5.31353 4.64475 4.64465ZM7.16676 5.4C6.69822 5.4 6.24886 5.58613 5.91754 5.91744C5.58623 6.24876 5.4001 6.69812 5.4001 7.16667C5.4001 7.63521 5.58623 8.08457 5.91754 8.41589C6.24886 8.7472 6.69822 8.93333 7.16676 8.93333C7.63531 8.93333 8.08467 8.7472 8.41599 8.41589C8.7473 8.08457 8.93343 7.63521 8.93343 7.16667C8.93343 6.69812 8.7473 6.24876 8.41599 5.91744C8.08467 5.58613 7.63531 5.4 7.16676 5.4ZM22.2668 11.1667C22.2668 10.6696 22.6697 10.2667 23.1668 10.2667H25.1668C25.9359 10.2667 26.6735 10.5722 27.2174 11.1161C27.7612 11.6599 28.0668 12.3975 28.0668 13.1667C28.0668 13.9358 27.7612 14.6734 27.2174 15.2173C26.6735 15.7611 25.9359 16.0667 25.1668 16.0667H24.0668V17.8333C24.0668 18.3304 23.6638 18.7333 23.1668 18.7333C22.6697 18.7333 22.2668 18.3304 22.2668 17.8333V11.1667ZM24.0668 14.2667H25.1668C25.4585 14.2667 25.7383 14.1508 25.9446 13.9445C26.1509 13.7382 26.2668 13.4584 26.2668 13.1667C26.2668 12.8749 26.1509 12.5951 25.9446 12.3888C25.7383 12.1826 25.4585 12.0667 25.1668 12.0667H24.0668V14.2667ZM22.2668 23.1667C22.2668 22.6696 22.6697 22.2667 23.1668 22.2667H24.5001C25.446 22.2667 26.3532 22.6424 27.0221 23.3113C27.691 23.9802 28.0668 24.8874 28.0668 25.8333C28.0668 26.7793 27.691 27.6865 27.0221 28.3553C26.3532 29.0242 25.446 29.4 24.5001 29.4H23.1668C22.6697 29.4 22.2668 28.9971 22.2668 28.5V23.1667ZM24.0668 24.0667V27.6H24.5001C24.9686 27.6 25.418 27.4139 25.7493 27.0826C26.0806 26.7512 26.2668 26.3019 26.2668 25.8333C26.2668 25.3648 26.0806 24.9154 25.7493 24.5841C25.418 24.2528 24.9686 24.0667 24.5001 24.0667H24.0668Z" fill="#101828"/>
<path fill-rule="evenodd" clip-rule="evenodd" d="M7.16685 8.93333C7.6639 8.93333 8.06685 9.33628 8.06685 9.83333V13.8333C8.06685 13.9483 8.1125 14.0585 8.19377 14.1397C8.27503 14.221 8.38525 14.2667 8.50018 14.2667H17.8335C18.3306 14.2667 18.7335 14.6696 18.7335 15.1667C18.7335 15.6637 18.3306 16.0667 17.8335 16.0667H13.4002V24.5C13.4002 24.6149 13.4458 24.7251 13.5271 24.8064C13.6084 24.8877 13.7186 24.9333 13.8335 24.9333H17.8335C18.3306 24.9333 18.7335 25.3363 18.7335 25.8333C18.7335 26.3304 18.3306 26.7333 17.8335 26.7333H13.8335C13.2412 26.7333 12.6731 26.498 12.2543 26.0792C11.8355 25.6604 11.6002 25.0923 11.6002 24.5V16.0667H8.50018C7.90786 16.0667 7.3398 15.8314 6.92097 15.4125C6.50214 14.9937 6.26685 14.4257 6.26685 13.8333V9.83333C6.26685 9.33628 6.66979 8.93333 7.16685 8.93333Z" fill="#101828"/>
</svg>
