<svg width="33" height="33" viewBox="0 0 33 33" fill="none" xmlns="http://www.w3.org/2000/svg">
<path fill-rule="evenodd" clip-rule="evenodd" d="M26.1875 3.67263C26.5186 3.81437 26.7333 4.13984 26.7333 4.5V28.5C26.7333 28.9971 26.3303 29.4 25.8333 29.4H24.4999C24.0029 29.4 23.5999 28.9971 23.5999 28.5V24.5C23.5999 24.0029 24.0029 23.6 24.4999 23.6C24.657 23.6 24.8047 23.6402 24.9333 23.711V21.4H19.1666C18.6717 21.4 18.2697 21.0005 18.2666 20.5056C18.2512 18.0393 18.3088 15.4438 19.2261 12.6736C20.1477 9.89022 21.9132 6.99552 25.2121 3.84877C25.4727 3.60018 25.8564 3.53089 26.1875 3.67263ZM24.9333 19.6V6.70676C22.7943 9.06471 21.6044 11.2173 20.9348 13.2394C20.2168 15.4077 20.0786 17.4763 20.0658 19.6H24.9333ZM7.1666 4.93333C7.66366 4.93333 8.0666 5.33627 8.0666 5.83333V9.83333C8.0666 10.6555 8.39321 11.444 8.97457 12.0254C9.33832 12.3891 9.78316 12.6531 10.2666 12.7998V5.83333C10.2666 5.33627 10.6695 4.93333 11.1666 4.93333C11.6637 4.93333 12.0666 5.33627 12.0666 5.83333V12.7998C12.55 12.6531 12.9949 12.3891 13.3586 12.0254C13.94 11.444 14.2666 10.6555 14.2666 9.83333V5.83333C14.2666 5.33627 14.6695 4.93333 15.1666 4.93333C15.6637 4.93333 16.0666 5.33627 16.0666 5.83333V9.83333C16.0666 11.1329 15.5504 12.3792 14.6314 13.2982C13.9275 14.0021 13.0315 14.4697 12.0666 14.65V28.5C12.0666 28.9971 11.6637 29.4 11.1666 29.4C10.6695 29.4 10.2666 28.9971 10.2666 28.5V14.65C9.30171 14.4697 8.40569 14.0021 7.70178 13.2982C6.78285 12.3792 6.2666 11.1329 6.2666 9.83333V5.83333C6.2666 5.33627 6.66955 4.93333 7.1666 4.93333Z" fill="#101828"/>
</svg>
