<svg width="32" height="32" viewBox="0 0 32 32" fill="none" xmlns="http://www.w3.org/2000/svg">
<path fill-rule="evenodd" clip-rule="evenodd" d="M4.62627 4.62622C5.01679 4.2357 5.64996 4.2357 6.04048 4.62622L8.76031 7.34605C10.0688 6.34419 11.6761 5.78898 13.3421 5.78057C15.0114 5.77214 16.6272 6.31316 17.9471 7.30538L19.2929 5.95955C19.6835 5.56903 20.3166 5.56903 20.7071 5.95955C21.0977 6.35008 21.0977 6.98324 20.7071 7.37377L18.7081 9.37277C18.7074 9.37354 18.7066 9.3743 18.7059 9.37506L9.37516 18.7058C9.37436 18.7066 9.37356 18.7074 9.37277 18.7081L7.37381 20.7071C6.98329 21.0976 6.35012 21.0976 5.9596 20.7071C5.56908 20.3166 5.56908 19.6834 5.9596 19.2929L7.30543 17.9471C6.31321 16.6271 5.77218 15.0113 5.78061 13.3421C5.78903 11.676 6.34423 10.0688 7.3461 8.76027L4.62627 6.04044C4.23574 5.64991 4.23574 5.01675 4.62627 4.62622ZM8.73895 16.5135L16.5136 8.7389C15.5866 8.11318 14.4861 7.77481 13.3522 7.78054C11.8768 7.78799 10.464 8.3774 9.42072 9.42067C8.37744 10.4639 7.78804 11.8768 7.78059 13.3522C7.77486 14.4861 8.11322 15.5865 8.73895 16.5135ZM21.3334 12.3333C21.8857 12.3333 22.3334 12.781 22.3334 13.3333V13.3467C22.3334 13.8989 21.8857 14.3467 21.3334 14.3467C20.7811 14.3467 20.3334 13.8989 20.3334 13.3467V13.3333C20.3334 12.781 20.7811 12.3333 21.3334 12.3333ZM26.6667 13.6667C27.219 13.6667 27.6667 14.1144 27.6667 14.6667V14.68C27.6667 15.2323 27.219 15.68 26.6667 15.68C26.1144 15.68 25.6667 15.2323 25.6667 14.68V14.6667C25.6667 14.1144 26.1144 13.6667 26.6667 13.6667ZM17.3334 16.3333C17.8857 16.3333 18.3334 16.781 18.3334 17.3333V17.3467C18.3334 17.8989 17.8857 18.3467 17.3334 18.3467C16.7811 18.3467 16.3334 17.8989 16.3334 17.3467V17.3333C16.3334 16.781 16.7811 16.3333 17.3334 16.3333ZM22.6667 17.6667C23.219 17.6667 23.6667 18.1144 23.6667 18.6667V18.68C23.6667 19.2323 23.219 19.68 22.6667 19.68C22.1144 19.68 21.6667 19.2323 21.6667 18.68V18.6667C21.6667 18.1144 22.1144 17.6667 22.6667 17.6667ZM13.3334 20.3333C13.8857 20.3333 14.3334 20.781 14.3334 21.3333V21.3467C14.3334 21.8989 13.8857 22.3467 13.3334 22.3467C12.7811 22.3467 12.3334 21.8989 12.3334 21.3467V21.3333C12.3334 20.781 12.7811 20.3333 13.3334 20.3333ZM18.6667 21.6667C19.219 21.6667 19.6667 22.1144 19.6667 22.6667V22.68C19.6667 23.2323 19.219 23.68 18.6667 23.68C18.1144 23.68 17.6667 23.2323 17.6667 22.68V22.6667C17.6667 22.1144 18.1144 21.6667 18.6667 21.6667ZM14.6667 25.6667C15.219 25.6667 15.6667 26.1144 15.6667 26.6667V26.68C15.6667 27.2323 15.219 27.68 14.6667 27.68C14.1144 27.68 13.6667 27.2323 13.6667 26.68V26.6667C13.6667 26.1144 14.1144 25.6667 14.6667 25.6667Z" fill="#101828"/>
</svg>
