<svg width="32" height="32" viewBox="0 0 32 32" fill="none" xmlns="http://www.w3.org/2000/svg">
<path fill-rule="evenodd" clip-rule="evenodd" d="M7.99998 8.90001C6.28103 8.90001 4.89998 10.2811 4.89998 12V22C4.89998 23.7189 6.28103 25.1 7.99998 25.1H24C25.7189 25.1 27.1 23.7189 27.1 22V12C27.1 10.2811 25.7189 8.90001 24 8.90001H7.99998ZM3.09998 12C3.09998 9.28695 5.28692 7.10001 7.99998 7.10001H24C26.713 7.10001 28.9 9.28695 28.9 12V22C28.9 24.7131 26.713 26.9 24 26.9H7.99998C5.28692 26.9 3.09998 24.7131 3.09998 22V12Z" fill="#101828"/>
<path fill-rule="evenodd" clip-rule="evenodd" d="M11.1 30C11.1 29.5029 11.5029 29.1 12 29.1H20C20.497 29.1 20.9 29.5029 20.9 30C20.9 30.4971 20.497 30.9 20 30.9H12C11.5029 30.9 11.1 30.4971 11.1 30Z" fill="#101828"/>
<path fill-rule="evenodd" clip-rule="evenodd" d="M22.6364 1.36361C22.9878 1.71508 22.9878 2.28493 22.6364 2.6364L16.6364 8.6364C16.2849 8.98787 15.7151 8.98787 15.3636 8.6364C15.0121 8.28493 15.0121 7.71508 15.3636 7.36361L21.3636 1.36361C21.7151 1.01214 22.2849 1.01214 22.6364 1.36361Z" fill="#101828"/>
<path fill-rule="evenodd" clip-rule="evenodd" d="M9.36358 1.36361C9.71505 1.01214 10.2849 1.01214 10.6364 1.36361L16.6364 7.36361C16.9878 7.71508 16.9878 8.28493 16.6364 8.6364C16.2849 8.98787 15.7151 8.98787 15.3636 8.6364L9.36358 2.6364C9.01211 2.28493 9.01211 1.71508 9.36358 1.36361Z" fill="#101828"/>
</svg>
